<?xml version="1.0" standalone="no"?><!DOCTYPE svg PUBLIC "-//W3C//DTD SVG 1.1//EN" "http://www.w3.org/Graphics/SVG/1.1/DTD/svg11.dtd"><svg t="1608215515673" class="icon" viewBox="0 0 1024 1024" version="1.1" xmlns="http://www.w3.org/2000/svg" p-id="12519" xmlns:xlink="http://www.w3.org/1999/xlink" width="200" height="200"><defs><style type="text/css"></style></defs><path d="M855.5 891.2H187.9c-39.7 0-72-32.3-72-72v-13.4c0-39.6 32.3-71.9 72-71.9h667.6c39.6 0 71.9 32.2 71.9 71.9v13.4c-0.1 39.7-32.3 72-71.9 72z m-667.6-119c-18.6 0-33.6 15-33.6 33.5v13.4c0 18.5 15.1 33.6 33.6 33.6h667.6c18.5 0 33.5-15.1 33.5-33.6v-13.4c0-18.5-15-33.5-33.5-33.5H187.9z" fill="#E86262" p-id="12520"></path><path d="M808.4 772.2H234.9V386.5c0-133.8 95.5-247.7 227.1-270.8 15.2-2.9 31.5-4.3 48.1-4.3h23.2c16.8 0 32.6 1.4 48.3 4.4 131.3 23 226.8 136.9 226.8 270.8v385.6z m-535.2-38.3h496.9V386.5c0-115.2-82.1-213.2-195.3-233.1-13.6-2.5-27.1-3.8-41.5-3.8h-23.2c-14.3 0-28.2 1.2-41.3 3.7-113.4 19.9-195.6 117.9-195.6 233.1v347.5z" fill="#E86262" p-id="12521"></path><path d="M446.1 157.7v-42C446.1 74 480 40 521.6 40c41.8 0 75.7 33.9 75.7 75.7v42l-22.7-4.2c-13.4-2.5-26.9-3.7-41.3-3.7h-23.2c-14.3 0-28.2 1.2-41.3 3.7l-22.7 4.2z m75.6-79.4c-19.6 0-35.6 15.1-37.2 34.2 8.4-0.8 16.9-1.2 25.5-1.2h23.2c8.7 0 17.2 0.4 25.5 1.2-1.5-19.1-17.5-34.2-37-34.2zM521.7 956.6c-41.8 0-75.7-33.9-75.7-75.6 0-4.2 0.3-8.2 1-12l2.6-16.1h144l2.6 16.1c0.6 3.8 1 7.9 1 12 0 20.2-7.8 39.2-22.1 53.5-14.2 14.2-33.2 22.1-53.4 22.1z m-35.9-65.4c4.4 15.6 18.8 27.1 35.8 27.1 10 0 19.4-3.9 26.4-10.9 4.6-4.6 7.8-10.1 9.5-16.2h-71.7z" fill="#E86262" p-id="12522"></path></svg>