<?xml version="1.0" standalone="no"?><!DOCTYPE svg PUBLIC "-//W3C//DTD SVG 1.1//EN" "http://www.w3.org/Graphics/SVG/1.1/DTD/svg11.dtd"><svg t="1608215634293" class="icon" viewBox="0 0 1024 1024" version="1.1" xmlns="http://www.w3.org/2000/svg" p-id="1202" xmlns:xlink="http://www.w3.org/1999/xlink" width="200" height="200"><defs><style type="text/css"></style></defs><path d="M512.3 0c282.8 0 512 229.2 512 512s-229.2 512-512 512S0.3 794.8 0.3 512 229.6 0 512.3 0z" fill="#D3EDEA" p-id="1203"></path><path d="M305.8 287.6h413.4c4.1 0 7.5 3.4 7.5 7.5v437.2c0 8.2-6.7 14.9-14.9 14.9H313.3c-8.2 0-14.9-6.7-14.9-14.9V295.1c0-4.5 3.3-7.5 7.4-7.5z" fill="#FFFFFF" p-id="1204"></path><path d="M346.1 368.6h332c3.9 0 6.7 3.4 6.7 7.5v129.1c0 4.1-3.2 7.5-6.7 7.5h-332c-3.9 0-6.7-3.4-6.7-7.5V376c0.1-4.1 3.2-7.4 6.7-7.4z" fill="#25C1B6" p-id="1205"></path><path d="M313.3 235h398.4c8.2 0 14.9 6.7 14.9 14.9v39.2H298.4v-39.2c0-8.2 6.7-14.9 14.9-14.9z" fill="#25C1B6" p-id="1206"></path><path d="M324.5 746.9h62.3v38.4c0 4.1-3.4 7.5-7.5 7.5h-47c-4.1 0-7.5-3.4-7.5-7.5l-0.3-38.4zM639.7 746.9H702v38.4c0 4.1-3.4 7.5-7.5 7.5h-47c-4.1 0-7.5-3.4-7.5-7.5v-38.4h-0.3z" fill="#25C1B6" p-id="1207"></path><path d="M731.9 503.2h24.6v27.6h-24.6z" fill="#0C2B44" p-id="1208"></path><path d="M764 423.8h32.5c4.1 0 7.5 3.4 7.5 7.5v99.6c0 4.1-3.4 7.5-7.5 7.5H764c-4.1 0-7.5-3.4-7.5-7.5v-99.6c0-4.2 3.4-7.5 7.5-7.5zM228.2 423.8h32.5c4.1 0 7.5 3.4 7.5 7.5v99.6c0 4.1-3.4 7.5-7.5 7.5h-32.5c-4.1 0-7.5-3.4-7.5-7.5v-99.6c0.1-4.2 3.4-7.5 7.5-7.5z" fill="#25C1B6" p-id="1209"></path><path d="M268.2 502.5h24.6v27.6h-24.6z" fill="#0C2B44" p-id="1210"></path><path d="M432.7 571.1H592c8.2 0 14.9 6.7 14.9 14.9v98.9c0 8.2-6.7 14.9-14.9 14.9H432.7c-8.2 0-14.9-6.7-14.9-14.9V586c0-7.8 6.7-14.9 14.9-14.9z" fill="#25C1B6" p-id="1211"></path><path d="M423.7 599.9h177.5v22.8H423.7v-22.8z m0 49.2h177.5v22.8H423.7v-22.8z" fill="#FFFFFF" p-id="1212"></path><path d="M343.5 616.3h27.6c4.1 0 7.5 3.4 7.5 7.5v27.6c0 4.1-3.4 7.5-7.5 7.5h-27.6c-4.1 0-7.5-3.4-7.5-7.5v-27.6c0.1-4.2 3.4-7.5 7.5-7.5zM653.9 616.3h27.6c4.1 0 7.5 3.4 7.5 7.5v27.6c0 4.1-3.4 7.5-7.5 7.5h-27.6c-4.1 0-7.5-3.4-7.5-7.5v-27.6c0.1-4.2 3.4-7.5 7.5-7.5z" fill="#25C1B6" p-id="1213"></path></svg>