<?xml version="1.0" standalone="no"?><!DOCTYPE svg PUBLIC "-//W3C//DTD SVG 1.1//EN" "http://www.w3.org/Graphics/SVG/1.1/DTD/svg11.dtd"><svg t="1608201548240" class="icon" viewBox="0 0 1024 1024" version="1.1" xmlns="http://www.w3.org/2000/svg" p-id="10521" xmlns:xlink="http://www.w3.org/1999/xlink" width="200" height="200"><defs><style type="text/css"></style></defs><path d="M229.888 271.36H204.8a32.768 32.768 0 1 0 0 66.048h26.112a32.768 32.768 0 1 0 0-66.048zM388.096 337.408h487.936a32.768 32.768 0 1 0 0-66.048H388.096a32.768 32.768 0 1 0 0 66.048zM229.888 479.232H204.8a32.768 32.768 0 1 0 0 66.048h26.112a32.768 32.768 0 1 0 0-66.048zM876.032 479.232H388.096a32.768 32.768 0 1 0 0 66.048h487.936a32.768 32.768 0 1 0 0-66.048zM229.888 686.592H204.8a32.768 32.768 0 1 0 0 66.048h26.112a32.768 32.768 0 1 0 0-66.048zM876.032 686.592H388.096a32.768 32.768 0 1 0 0 66.048h487.936a32.768 32.768 0 1 0 0-66.048z" fill="#1296db" p-id="10522"></path></svg>